<svg width="1800" height="2268" viewBox="0 0 1800 2268" fill="none" xmlns="http://www.w3.org/2000/svg">
<g clip-path="url(#clip0_737_2)">
<rect width="1800" height="2268" fill="white"/>
<path d="M899.4 -7.931H1839V2272.07C1839 2272.07 1419 2272.07 900 2272.07C381.3 2272.07 -39.12 2272.07 -39.12 2272.07V-7.931L899.38 -7.862L899.4 -7.931Z" fill="#FFD72E"/>
<path d="M116.5 732.7C116.5 732.7 177 747 209.6 735.2C229 728.2 230.7 691.7 225.3 693.2C210.7 697.5 133.9 685.2 107.6 678.4C100.1 676.5 116.5 732.7 116.5 732.7V732.7Z" stroke="black" stroke-width="12.43" stroke-miterlimit="10"/>
<path d="M244 727.6C244 727.6 102.5 724.5 93.5 720.9C84.4 717.3 110.4 781 146.7 796C167.6 804.6 205.2 760 246.9 756.6C257.2 755.8 244 727.6 244 727.6Z" fill="#FFD72E"/>
<path d="M203.4 683.5C201 686 199.3 718.5 199.3 718.5L231.1 763.8C231.1 763.8 256.6 755.3 255.8 760.8C258.9 776 242.9 787.8 265.8 793.8C288.6 799.9 288.5 761.8 356.4 764.2C424.2 766.7 446.9 774.2 464.3 799.9C486.3 832.4 500.5 925.9 506.1 939.4C510.3 949.5 522.2 980.3 539.8 988C558.2 995 581.2 960.3 581.2 959.3C581.2 951.5 573.3 942.9 573.3 936.1C573.3 929.2 583.1 911 590.4 899.3C599.9 884 560.8 795.6 558.2 785.5C557.9 768.1 551.2 751.7 551.2 751.7C551.2 751.7 539.9 730.9 534.6 725.6C529.2 720.4 528.2 714.4 521.8 712.4C517.1 710.8 460 700 421 699.4C409.7 699.2 326.5 684.9 317.2 691.3C285.1 681.2 235.5 647.3 203.4 683.5" fill="black"/>
<path d="M953 1467C954 1473 972 1607 972 1611C972 1615 943.7 1655 905.7 1652C880.9 1649 867 1602 872.7 1554C878.3 1506 941.1 1464 953 1467Z" stroke="black" stroke-width="13.99"/>
<path d="M1058 1603C1031 1560 975 1474 975 1474C975 1474 922.3 1484 926.4 1572C930.6 1660 1033 1653 1058 1603Z" fill="#FFD72E"/>
<path d="M1058 1603C1031 1560 975 1474 975 1474C975 1474 922.3 1484 926.4 1572C930.6 1660 1033 1653 1058 1603Z" stroke="black" stroke-width="13.99"/>
<path d="M244 727.6C244 727.6 102.5 724.5 93.5 720.9C84.4 717.3 110.4 781 146.7 796C167.6 804.6 205.2 760 246.9 756.6C257.2 755.8 244 727.6 244 727.6Z" stroke="black" stroke-width="12.43" stroke-miterlimit="10"/>
<path d="M175.9 1089L142.6 1189C142.6 1189 58.1 1190 66.2 1184C74.2 1177 118.1 1107 126.8 1104C135.5 1101 175.9 1089 175.9 1089Z" stroke="black" stroke-width="13.99" stroke-miterlimit="10"/>
<path d="M172.5 1081C172.5 1081 230.8 1090 227.2 1089C223.6 1088 230.3 1172 227.9 1176C225.6 1181 156.6 1230 115.9 1214C109.9 1212 172.5 1081 172.5 1081" fill="#FFD72E"/>
<path d="M172.5 1081C172.5 1081 230.8 1090 227.2 1089C223.6 1088 230.3 1172 227.9 1176C225.6 1181 156.6 1230 115.9 1214C109.9 1212 172.5 1081 172.5 1081V1081Z" stroke="black" stroke-width="13.99" stroke-miterlimit="10"/>
<path d="M404.5 1885C404.5 1885 446.2 1882 453.4 1892C460.6 1902 393.3 1965 393.3 1965C393.3 1965 324.1 1970 320 1963C315.9 1956 404.5 1885 404.5 1885V1885Z" stroke="black" stroke-width="13.99"/>
<path d="M458.2 1873L488.6 1884C488.6 1884 496.5 1967 486 1979C475.3 1992 413.8 2019 361.4 1996C349.1 1990 458.2 1873 458.2 1873Z" fill="#FFD72E"/>
<path d="M458.2 1873L488.6 1884C488.6 1884 496.5 1967 486 1979C475.3 1992 413.8 2019 361.4 1996C349.1 1990 458.2 1873 458.2 1873ZM1448 1863C1462 1853 1477 1841 1501 1840L1497 1954C1497 1954 1425 1988 1423 1983C1421 1978 1437 1873 1448 1863Z" stroke="black" stroke-width="13.99"/>
<path d="M1500 1809C1500 1809 1461 1982 1465 1988C1468 1993 1564 1946 1569 1912C1573 1879 1543 1802 1543 1802L1500 1809Z" fill="#FFD72E"/>
<path d="M1500 1809C1500 1809 1461 1982 1465 1988C1468 1993 1564 1946 1569 1912C1573 1879 1543 1802 1543 1802L1500 1809Z" stroke="black" stroke-width="13.99"/>
<path d="M987 1445C976 1459 959 1466 957 1462C963 1424 946.4 1377 916.8 1340C952 1345 1000 1430 987 1445ZM515.6 1121C520.5 1128 509.4 1151 522.7 1170C532.5 1184 557.5 1178 563.8 1187C574.4 1201 600.7 1273 668.4 1217C685.4 1255 925.5 1330 905.4 1324C810.8 1301 817.3 1333 798.8 1326C780.3 1318 732.1 1291 716.6 1348C677.6 1338 659.4 1341 632.7 1393C627.3 1396 562.1 1408 578.9 1477C538.9 1500 549.4 1535 585.4 1574C580.7 1612 570.7 1642 636.6 1650C640.4 1656 648.1 1683 703.8 1680C714.3 1698 702 1706 702 1706C702 1706 551.4 1814 485.4 1817C458.7 1819 460 1821 453.1 1827C446.2 1833 427.4 1878 427.4 1878C427.4 1878 419.9 1890 430.5 1895C440.9 1901 467.4 1911 485.8 1912C491.4 1913 499.4 1910 502.7 1898C506.1 1885 531.4 1875 535 1912C535.4 1916 557.4 1911 559.3 1908C575.5 1882 588.1 1843 658.8 1814C717.1 1791 824.8 1753 833.1 1748C841.3 1742 845.4 1710 838.1 1699C830.7 1689 811.9 1664 811.9 1664C811.9 1664 880.2 1640 886.1 1638C835.5 1560 906.4 1459 976 1475C974 1477 955 1498 991 1523C966 1575 1031 1587 1031 1587C1031 1587 1033 1621 1040 1626C1047 1631 1047 1632 1101 1628C1117 1627 1147 1685 1203 1628C1215 1658 1283 1671 1295 1627C1362 1663 1386 1593 1381 1581C1390 1581 1390 1580 1393 1573C1425 1590 1430 1623 1445 1666C1461 1715 1478 1770 1478 1770C1478 1770 1481 1793 1477 1796C1467 1802 1458 1827 1467 1853C1528 1884 1559 1857 1559 1852C1560 1847 1563 1831 1568 1827C1573 1823 1597 1812 1597 1806C1596 1800 1589 1791 1579 1780C1568 1775 1561 1760 1552 1755C1536 1746 1484 1578 1478 1553C1473 1528 1494 1464 1459 1457C1428 1451 1415 1486 1395 1468C1390 1462 1408 1457 1393 1434C1390 1430 1378 1416 1355 1421C1363 1372 1304 1367 1304 1367C1304 1367 1313 1343 1276 1285C1373 1292 1363 1257 1379 1253C1387 1251 1457 1274 1465 1223C1475 1223 1525 1230 1536 1177C1589 1189 1598 1129 1598 1129C1598 1129 1669 1116 1635 1062C1662 1040 1665 999 1613 993C1615 935.5 1570 931.7 1541 961.8C1539 957.2 1493 923.6 1464 995C1401 986 1409 1045 1409 1045C1409 1045 1358 1032 1362 1107C1339 1110 1342 1127 1342 1127C1342 1127 1352 1231 1263 1249C1230 1194 1133 1166 1066 1130C1021 1107 991 1080 996 1071C1024 1018 1013 1006 1013 1006C1013 1006 1061 983.1 1053 951.9C1100 937.4 1086 899.3 1095 889C1103 878.7 1144 883.7 1125 829.1C1121 819.8 1070 802 1051 774.8C1047 774.8 1044 775.3 1044 775.3C1044 775.3 1042 737.1 1026 735.8C1010 734.5 987 762.6 968 761.7C958 761.3 928.4 760 920.4 758.7C912.3 757.5 883.1 781.4 883.1 781.4C883.1 781.4 818.1 766.2 799.6 803.2C751.9 780.6 728.1 821.7 728.1 821.7C728.1 821.7 667.4 802.8 656.9 874.7C587.8 886.8 592 922.4 593.5 938.3C594.9 954.3 602.1 954.5 596.9 970.8C572 977.3 547.3 1007 547.3 1007C547.3 1007 538.4 1011 509 987C474 959.1 457.4 945.7 449.3 936.5C441.1 927.3 419 922.2 384.8 937.4C370 943.9 372 950 330.6 976.5C281.5 1008 227.9 1046 194.1 1041C173.6 1038 135.6 1070 135.2 1097C134.9 1123 233.4 1120 234.5 1109C235.7 1098 243.3 1093 243.3 1093C243.3 1093 267.1 1141 295.9 1105C324.7 1069 348.3 1050 348.3 1050C348.3 1050 385.9 1008 422.1 1024C458.3 1040 483.5 1087 515.6 1121" fill="black"/>
<path d="M765.3 285.2C749.4 123.5 1135 120 1034 468.4" stroke="black" stroke-width="13.8"/>
<path d="M1095 601.5C1105 609.4 1167 471.4 1179 458.6C1191 445.9 1198 428.2 1198 408.5C1198 377.3 1180 350.7 1155 340.9C1164 326.7 1169 309.5 1169 290.8C1170 241.9 1135 201.9 1091 201.5C1089 201.4 1087 201.6 1085 201.8C1101 181.4 1105 153.4 1092 131.1C1076 102 1038 93.8 1008 112.7C1006 113.8 1004 115.1 1003 116.3C1002 107.4 999 98.8 994 91.2C977 63.94 939.2 58.75 910.3 79.45C907 81.75 904.1 84.31 901.4 87C883.4 61.75 847.1 57.23 818.9 77.41C810.7 83.2 804.2 90.5 799.4 98.6C781.8 89 760.6 89.2 743.8 101.2C720.7 117.7 714.2 150.5 727.4 177.4C712.9 176.5 698.7 181.4 688.3 192.4C667.4 214.1 669.1 251.4 691.9 275.8C693.3 277.2 694.8 278.6 696.2 279.9C695.4 280.7 694.6 281.4 693.8 282.2C674 302.9 674.1 337 694.1 358.3C708.7 373.8 729.7 378.2 747.7 371.5C741.2 390.1 744.3 411.1 757.5 425.2C776.3 445.1 808.1 444 828.6 422.5C832.2 418.7 835.2 414.5 837.7 410C854.9 431.7 884.3 435.8 903.9 419.2C922 403.8 925.3 376.1 912.9 354.3C965 312.1 892.3 241.7 848.6 284.7C870.7 295 873.7 321.3 854.8 330.6C845.8 334.9 835.7 337.8 827.6 335.1C793.3 323.9 798 277.3 801.8 265C816.8 216.1 888.2 206.5 935 226.2C959 236.2 1057 275.2 977 490.8" stroke="black" stroke-width="14"/>
<path d="M1600 750.4C1623 735.4 1637 707.8 1633 678.4C1630 652.5 1614 631.7 1593 621.2C1599 609 1601 595.3 1600 581C1595 542 1561 514.3 1521 517C1525 508.8 1527 499.9 1526 490.6C1522 461.4 1493 441.2 1461 445.4C1444 447.6 1429 456.4 1420 468.6C1409 436.6 1376 415.8 1341 420.5C1318 423.4 1299 436 1287 453.5C1270 442.1 1247 436.5 1223 439.7C1175 446 1141 482.1 1146 520.5C1147 532.8 1152 543.9 1160 552.9L1089 601.4L1155 696.1C1155 696.1 1250 622.7 1331 626.7C1422 631.1 1467 672.5 1463 748.4C1459 814.5 1391 814 1378 781.3C1364 748.7 1394 732.1 1394 732.1C1353 691.6 1312 724.2 1306 751.3C1292 747.9 1278 750.5 1267 760C1247 776.7 1245 808.4 1262 830.8C1266 835 1269 838.7 1273 841.6C1262 859.9 1263 885.9 1278 905.3C1296 929 1327 934.2 1348 916.9C1348 916.5 1349 916 1349 915.6C1351 920.3 1354 924.8 1357 929C1375 952.7 1407 957 1429 938.6C1437 931.4 1443 921.6 1445 911.1C1447 912.5 1448 914 1449 915.4C1474 939.7 1513 937.9 1536 911.5C1552 893.6 1557 869 1550 847.3C1554 847.3 1557 847.2 1560 846.8C1597 841.9 1624 813.7 1620 783.7C1618 770.1 1611 758.5 1600 750.4Z" fill="#FFD72E"/>
<path d="M1349 790.7C1393 894.8 1560 818 1480 664.2C1428 564 1266 569.1 1193 638.6M1600 750.4C1623 735.4 1637 707.8 1633 678.4C1630 652.5 1614 631.7 1593 621.2C1599 609 1601 595.3 1600 581C1595 542 1561 514.3 1521 517C1525 508.8 1527 499.9 1526 490.6C1522 461.4 1493 441.2 1461 445.4C1444 447.6 1429 456.4 1420 468.6C1409 436.6 1376 415.8 1341 420.5C1318 423.4 1299 436 1287 453.5C1270 442.1 1247 436.5 1223 439.7C1175 446 1141 482.1 1146 520.5C1147 532.8 1152 543.9 1160 552.9L1089 601.4L1155 696.1C1155 696.1 1250 622.7 1331 626.7C1422 631.1 1467 672.5 1463 748.4C1459 814.5 1391 814 1378 781.3C1364 748.7 1394 732.1 1394 732.1C1353 691.6 1312 724.2 1306 751.3C1292 747.9 1278 750.5 1267 760C1247 776.7 1245 808.4 1262 830.8C1266 835 1269 838.7 1273 841.6C1262 859.9 1263 885.9 1278 905.3C1296 929 1327 934.2 1348 916.9C1348 916.5 1349 916 1349 915.6C1351 920.3 1354 924.8 1357 929C1375 952.7 1407 957 1429 938.6C1437 931.4 1443 921.6 1445 911.1C1447 912.5 1448 914 1449 915.4C1474 939.7 1513 937.9 1536 911.5C1552 893.6 1557 869 1550 847.3C1554 847.3 1557 847.2 1560 846.8C1597 841.9 1624 813.7 1620 783.7C1618 770.1 1611 758.5 1600 750.4Z" stroke="black" stroke-width="14.06"/>
<path d="M1091 590.6C1102 604.3 1126 601.4 1145 584.4C1165 567.4 1172 542.5 1161 528.8C1150 515.1 1125 517.9 1106 535C1087 552 1080 576.9 1091 590.6Z" fill="#FFD72E"/>
<path d="M1009 508.5C1020 522.8 1045 520.6 1064 503.5C1084 486.5 1090 461 1079 446.8C1068 432.5 1043 434.7 1023 451.7C1004 468.8 998 494.3 1009 508.5Z" fill="#FFD72E"/>
<path d="M1154 667.9C1166 682.1 1191 679.6 1210 662.2C1230 644.8 1237 619.2 1226 605C1214 590.7 1189 593.3 1170 610.6C1150 628 1143 653.7 1154 667.9" fill="#FFD72E"/>
<path d="M1091 590.6C1102 604.3 1126 601.4 1145 584.4C1165 567.4 1172 542.5 1161 528.8C1150 515.1 1125 517.9 1106 535C1087 552 1080 576.9 1091 590.6ZM1009 508.5C1020 522.8 1045 520.6 1064 503.5C1084 486.5 1090 461 1079 446.8C1068 432.5 1043 434.7 1023 451.7C1004 468.8 998 494.3 1009 508.5ZM1154 667.9C1166 682.1 1191 679.6 1210 662.2C1230 644.8 1237 619.2 1226 605C1214 590.7 1189 593.3 1170 610.6C1150 628 1143 653.7 1154 667.9V667.9Z" stroke="black" stroke-width="11.73"/>
<path d="M958 483.9C983 431.2 972 375.7 972 375.7C972 375.7 1055 415 1018 526.7C1014 523 979 495.6 958 483.9" fill="#FFD72E"/>
<path d="M1159 702.1C1214 669.5 1293 684.2 1293 684.2C1293 684.2 1234 595.1 1134 662.2C1138 665.6 1151 681 1159 702.1Z" fill="#FFD72E"/>
<path d="M958 483.9C983 431.2 972 375.7 972 375.7C972 375.7 1055 415 1018 526.7C1014 523 979 495.6 958 483.9V483.9Z" stroke="black" stroke-width="14.06"/>
<path d="M1159 702.1C1214 669.5 1293 684.2 1293 684.2C1293 684.2 1234 595.1 1134 662.2C1138 665.6 1151 681 1159 702.1Z" stroke="black" stroke-width="13.8"/>
<path d="M818.3 683C808.1 691.6 659.2 743.8 622.2 694.8C582.4 642.3 635.3 583.5 643.1 587.7C650.8 591.9 653.3 655.1 692.9 666.8C732.4 678.5 806.3 671.4 806.3 671.4L818.3 683V683Z" fill="#050102"/>
<path d="M1001 602.1C1020 624.9 1059 621.3 1090 594.1C1121 566.9 1131 526.3 1113 503.5C1095 480.7 1055 484.2 1025 511.4C994 538.7 983 579.3 1001 602.1Z" fill="#FFD72E"/>
<path d="M1078 658C1093 677.1 1128 672.4 1156 647.7C1185 622.9 1195 587.5 1180 568.4C1165 549.4 1130 554 1102 578.8C1074 603.5 1063 639 1078 658" fill="#FFD72E"/>
<path d="M1001 602.1C1020 624.9 1059 621.3 1090 594.1C1121 566.9 1131 526.3 1113 503.5C1095 480.7 1055 484.2 1025 511.4C994 538.7 983 579.3 1001 602.1ZM1078 658C1093 677.1 1128 672.4 1156 647.7C1185 622.9 1195 587.5 1180 568.4C1165 549.4 1130 554 1102 578.8C1074 603.5 1063 639 1078 658V658Z" stroke="black" stroke-width="14.06"/>
<path d="M937.3 508.8C1049 571.1 1115 682.5 1132 722.3C1146 715.4 1151 704.8 1164 699C1120 605.4 1038 516 961 476.1C954 487.8 946.1 497.7 937.3 508.8" fill="#FFD72E"/>
<path d="M937.3 508.8C1049 571.1 1115 682.5 1132 722.3C1146 715.4 1151 704.8 1164 699C1120 605.4 1038 516 961 476.1C954 487.8 946.1 497.7 937.3 508.8V508.8Z" stroke="black" stroke-width="14.06"/>
<path d="M1036 561.2C1080 604 1124 663.5 1138 709.2C1136 711.9 1145 707.2 1141 709.1C1158 715.5 1161 719.7 1179 735.4C1188 743.6 1196 750.1 1201 764.8C1204 775.2 1204 785.8 1204 796.4C1206 831.5 1196 864.5 1181 873.5C1161 885.9 1160 859.6 1149 841.2C1128 804.7 1069 780.5 1052 751.1C1048 743.5 1040 706.8 1040 706.8C1040 706.8 988 742.8 957 746.5C925.3 750.2 909.2 725.8 850 727.2C829.3 745.6 808.6 752.7 791.2 760.2C773.1 768.1 763.6 736.3 738.8 720.1C748.2 712.7 816.3 725.8 818.3 683C808.1 691.6 659.2 743.8 622.2 694.8C582.4 642.3 635.3 583.5 643.1 587.7C650.8 591.9 653.3 655.1 692.9 666.8C732.4 678.5 806.3 671.4 806.3 671.4C806.3 671.4 803.8 669.9 801.9 668.4C800.5 673.5 703.8 665.7 703.8 665.7C703.8 665.7 690.7 640 699.9 625.2C703.7 620.5 704.1 620.5 704.1 620.5L713.7 600.7C713.7 600.7 719.4 592.8 727.6 596.2C735.8 599.6 753.4 599 753.4 599C753.4 599 833.1 534 859.5 544.9C861.9 523.7 896.2 471.5 946.7 496C949.8 494.1 946.8 498 949.2 499.1C956 499.3 997 523.5 1036 561.2Z" fill="black"/>
<path d="M621.8 639.9C620.9 644.1 620.5 648.2 620.4 652.1C620.4 664.3 624.3 675.8 632.2 686.3C660.2 723.6 774 690.5 811.2 677.1C777 687.7 712.5 684.4 687.5 678.4C658.4 672.1 640.8 630.9 637.3 608.2V608.1C631.6 615.1 624.7 626.3 621.8 639.9" fill="#E7423F"/>
<path d="M949.8 583.2C947.8 581.4 930.2 569.4 922.3 570.2C919.9 567.9 909 561.4 914.9 558.8C918 557.4 923.9 556.7 925.1 556.7C926.4 556.7 939.5 558.9 942.3 559C955 560.8 980 579.6 975 612.7C974 619.4 955 587.9 949.8 583.2Z" fill="#FFD72E"/>
<path d="M754.4 618.3L762.1 616L768.7 619.5L768.6 623L765.3 629.9L759.8 635.6L751 641.3H745.5L742.3 639L740.1 634.3L743.4 628.6L754.4 618.3V618.3Z" fill="#FFD72E"/>
<path d="M936 609.2C946.383 609.2 954.8 600.783 954.8 590.4C954.8 580.017 946.383 571.6 936 571.6C925.617 571.6 917.2 580.017 917.2 590.4C917.2 600.783 925.617 609.2 936 609.2Z" fill="#FFD72E"/>
</g>
<defs>
<clipPath id="clip0_737_2">
<rect width="1800" height="2268" fill="white"/>
</clipPath>
</defs>
</svg>
